<?xml version="1.0" encoding="utf-8"?>
<!-- Generator: Adobe Illustrator 16.0.3, SVG Export Plug-In . SVG Version: 6.00 Build 0)  -->
<!DOCTYPE svg PUBLIC "-//W3C//DTD SVG 1.1//EN" "http://www.w3.org/Graphics/SVG/1.1/DTD/svg11.dtd">
<svg version="1.1" id="Layer_1" xmlns="http://www.w3.org/2000/svg" xmlns:xlink="http://www.w3.org/1999/xlink" x="0px" y="0px"
	 width="371.135px" height="577.32px" viewBox="0 0 371.135 577.32" enable-background="new 0 0 371.135 577.32"
	 xml:space="preserve">
<rect x="-4.918" y="556.302" fill="none" width="369.123" height="61.834"/>
<text transform="matrix(1 0 0 1 46.5881 567.3787)" font-family="sans-serif" font-size="15.5127">NOTE: </text>
<text transform="matrix(1 0 0 1 98.1943 567.3787)" font-family="sans-serif" font-size="15.5127"> GPIO voltage levels are 3.3 V.</text>
<path fill="#00AEEF" stroke="#000000" stroke-width="0.25" stroke-miterlimit="10" d="M163.917,53.912
	c-5.829,0-10.553,4.725-10.553,10.553s4.724,10.553,10.553,10.553c5.828,0,10.555-4.725,10.555-10.553
	C174.472,58.635,169.746,53.912,163.917,53.912z M163.917,67.099c-1.46,0-2.639-1.182-2.639-2.639c0-1.459,1.179-2.641,2.639-2.641
	c1.458,0,2.641,1.182,2.641,2.641C166.556,65.918,165.375,67.099,163.917,67.099z"/>
<path fill="#00AEEF" stroke="#000000" stroke-width="0.25" stroke-miterlimit="10" d="M163.917,78.731
	c-5.829,0-10.553,4.724-10.553,10.553c0,5.828,4.724,10.552,10.553,10.552c5.828,0,10.555-4.725,10.555-10.552
	C174.471,83.455,169.746,78.731,163.917,78.731z M163.917,91.918c-1.46,0-2.639-1.181-2.639-2.638c0-1.458,1.179-2.64,2.639-2.64
	c1.458,0,2.641,1.182,2.641,2.64C166.556,90.737,165.375,91.918,163.917,91.918z"/>
<path fill="#009444" stroke="#000000" stroke-width="0.25" stroke-miterlimit="10" d="M163.917,103.551
	c-5.829,0-10.553,4.724-10.553,10.554c0,5.828,4.724,10.553,10.553,10.553c5.828,0,10.555-4.726,10.555-10.553
	C174.471,108.274,169.746,103.551,163.917,103.551z M163.917,116.738c-1.46,0-2.639-1.181-2.639-2.638
	c0-1.458,1.179-2.64,2.639-2.64c1.458,0,2.641,1.182,2.641,2.64C166.556,115.557,165.375,116.738,163.917,116.738z"/>
<path stroke="#000000" stroke-width="0.25" stroke-miterlimit="10" d="M163.917,128.37c-5.829,0-10.553,4.725-10.553,10.555
	c0,5.827,4.724,10.552,10.553,10.552c5.828,0,10.555-4.725,10.555-10.552C174.471,133.094,169.746,128.37,163.917,128.37z
	 M163.917,141.557c-1.46,0-2.639-1.181-2.639-2.638c0-1.458,1.179-2.641,2.639-2.641c1.458,0,2.641,1.183,2.641,2.641
	C166.556,140.377,165.375,141.557,163.917,141.557z"/>
<path fill="#009444" stroke="#000000" stroke-width="0.25" stroke-miterlimit="10" d="M163.917,153.189
	c-5.829,0-10.553,4.724-10.553,10.554c0,5.827,4.724,10.553,10.553,10.553c5.828,0,10.555-4.726,10.555-10.553
	C174.471,157.913,169.746,153.189,163.917,153.189z M163.917,166.377c-1.46,0-2.639-1.181-2.639-2.64c0-1.458,1.179-2.64,2.639-2.64
	c1.458,0,2.641,1.182,2.641,2.64C166.556,165.196,165.375,166.377,163.917,166.377z"/>
<path fill="#009444" stroke="#000000" stroke-width="0.25" stroke-miterlimit="10" d="M163.917,178.009
	c-5.829,0-10.553,4.725-10.553,10.554c0,5.827,4.724,10.552,10.553,10.552c5.828,0,10.555-4.725,10.555-10.552
	C174.471,182.733,169.746,178.009,163.917,178.009z M163.917,191.197c-1.46,0-2.639-1.182-2.639-2.64s1.179-2.64,2.639-2.64
	c1.458,0,2.641,1.181,2.641,2.64S165.375,191.197,163.917,191.197z"/>
<path fill="#009444" stroke="#000000" stroke-width="0.25" stroke-miterlimit="10" d="M163.917,202.828
	c-5.829,0-10.553,4.726-10.553,10.555c0,5.828,4.724,10.553,10.553,10.553c5.828,0,10.555-4.727,10.555-10.553
	C174.471,207.553,169.746,202.828,163.917,202.828z M163.917,216.017c-1.46,0-2.639-1.182-2.639-2.641
	c0-1.457,1.179-2.64,2.639-2.64c1.458,0,2.641,1.181,2.641,2.64C166.556,214.834,165.375,216.017,163.917,216.017z"/>
<path fill="#F7941E" stroke="#000000" stroke-width="0.25" stroke-miterlimit="10" d="M163.917,227.647
	c-5.829,0-10.553,4.726-10.553,10.554c0,5.827,4.724,10.554,10.553,10.554c5.828,0,10.555-4.727,10.555-10.554
	C174.471,232.373,169.746,227.647,163.917,227.647z M163.917,240.836c-1.46,0-2.639-1.182-2.639-2.64s1.179-2.64,2.639-2.64
	c1.458,0,2.641,1.182,2.641,2.64C166.556,239.654,165.375,240.836,163.917,240.836z"/>
<path fill="#92278F" stroke="#000000" stroke-width="0.25" stroke-miterlimit="10" d="M163.917,252.467
	c-5.829,0-10.553,4.727-10.553,10.555c0,5.827,4.724,10.553,10.553,10.553c5.828,0,10.555-4.726,10.555-10.553
	C174.471,257.193,169.746,252.467,163.917,252.467z M163.917,265.656c-1.46,0-2.639-1.183-2.639-2.64c0-1.459,1.179-2.64,2.639-2.64
	c1.458,0,2.641,1.18,2.641,2.64C166.556,264.473,165.375,265.656,163.917,265.656z"/>
<path fill="#92278F" stroke="#000000" stroke-width="0.25" stroke-miterlimit="10" d="M163.917,277.288
	c-5.829,0-10.553,4.725-10.553,10.555c0,5.827,4.724,10.551,10.553,10.551c5.828,0,10.555-4.724,10.555-10.551
	C174.471,282.012,169.746,277.288,163.917,277.288z M163.917,290.475c-1.46,0-2.639-1.181-2.639-2.638
	c0-1.459,1.179-2.64,2.639-2.64c1.458,0,2.641,1.181,2.641,2.64C166.556,289.295,165.375,290.475,163.917,290.475z"/>
<path fill="#92278F" stroke="#000000" stroke-width="0.25" stroke-miterlimit="10" d="M163.917,302.107
	c-5.829,0-10.553,4.727-10.553,10.553c0,5.827,4.724,10.556,10.553,10.556c5.828,0,10.555-4.729,10.555-10.556
	C174.471,306.834,169.746,302.107,163.917,302.107z M163.917,315.297c-1.46,0-2.639-1.183-2.639-2.638
	c0-1.459,1.179-2.643,2.639-2.643c1.458,0,2.641,1.182,2.641,2.643C166.556,314.115,165.375,315.297,163.917,315.297z"/>
<path stroke="#000000" stroke-width="0.25" stroke-miterlimit="10" d="M163.917,326.931c-5.829,0-10.553,4.722-10.553,10.554
	c0,5.828,4.724,10.55,10.553,10.55c5.828,0,10.555-4.722,10.555-10.55C174.471,331.652,169.746,326.931,163.917,326.931z
	 M163.917,340.115c-1.46,0-2.639-1.181-2.639-2.636c0-1.459,1.179-2.642,2.639-2.642c1.458,0,2.641,1.183,2.641,2.642
	C166.556,338.934,165.375,340.115,163.917,340.115z"/>
<path fill="#ED1C24" stroke="#000000" stroke-width="0.25" stroke-miterlimit="10" d="M188.738,29.091
	c-5.827,0-10.552,4.726-10.552,10.555s4.725,10.553,10.552,10.553c5.83,0,10.554-4.724,10.554-10.553S194.567,29.091,188.738,29.091
	z M188.738,42.28c-1.457,0-2.64-1.182-2.64-2.639c0-1.458,1.183-2.64,2.64-2.64c1.456,0,2.64,1.182,2.64,2.64
	C191.378,41.098,190.194,42.28,188.738,42.28z"/>
<path fill="#ED1C24" stroke="#000000" stroke-width="0.25" stroke-miterlimit="10" d="M188.738,53.912
	c-5.827,0-10.552,4.725-10.552,10.553s4.725,10.553,10.552,10.553c5.83,0,10.554-4.725,10.554-10.553
	C199.292,58.635,194.567,53.912,188.738,53.912z M188.738,67.099c-1.457,0-2.64-1.182-2.64-2.639c0-1.459,1.183-2.641,2.64-2.641
	c1.456,0,2.64,1.182,2.64,2.641C191.378,65.918,190.194,67.099,188.738,67.099z"/>
<path stroke="#000000" stroke-width="0.25" stroke-miterlimit="10" d="M188.738,78.731c-5.827,0-10.552,4.724-10.552,10.553
	c0,5.828,4.725,10.552,10.552,10.552c5.83,0,10.554-4.725,10.554-10.552C199.292,83.455,194.567,78.731,188.738,78.731z
	 M188.738,91.918c-1.457,0-2.64-1.181-2.64-2.638c0-1.458,1.183-2.64,2.64-2.64c1.456,0,2.64,1.182,2.64,2.64
	C191.378,90.737,190.194,91.918,188.738,91.918z"/>
<path fill="#FFF200" stroke="#000000" stroke-width="0.25" stroke-miterlimit="10" d="M188.738,103.551
	c-5.827,0-10.552,4.724-10.552,10.554c0,5.828,4.725,10.553,10.552,10.553c5.83,0,10.554-4.726,10.554-10.553
	C199.292,108.274,194.567,103.551,188.738,103.551z M188.738,116.738c-1.457,0-2.64-1.181-2.64-2.638c0-1.458,1.183-2.64,2.64-2.64
	c1.456,0,2.64,1.182,2.64,2.64C191.378,115.557,190.194,116.738,188.738,116.738z"/>
<path fill="#FFF200" stroke="#000000" stroke-width="0.25" stroke-miterlimit="10" d="M188.738,128.37
	c-5.827,0-10.552,4.725-10.552,10.555c0,5.827,4.725,10.552,10.552,10.552c5.83,0,10.554-4.725,10.554-10.552
	C199.292,133.094,194.567,128.37,188.738,128.37z M188.738,141.557c-1.457,0-2.64-1.181-2.64-2.638c0-1.458,1.183-2.641,2.64-2.641
	c1.456,0,2.64,1.183,2.64,2.641C191.378,140.377,190.194,141.557,188.738,141.557z"/>
<path fill="#009444" stroke="#000000" stroke-width="0.25" stroke-miterlimit="10" d="M188.738,153.189
	c-5.827,0-10.552,4.724-10.552,10.554c0,5.827,4.725,10.553,10.552,10.553c5.83,0,10.554-4.726,10.554-10.553
	C199.292,157.913,194.567,153.189,188.738,153.189z M188.738,166.377c-1.457,0-2.64-1.181-2.64-2.64c0-1.458,1.183-2.64,2.64-2.64
	c1.456,0,2.64,1.182,2.64,2.64C191.378,165.196,190.194,166.377,188.738,166.377z"/>
<path stroke="#000000" stroke-width="0.25" stroke-miterlimit="10" d="M188.738,178.009c-5.827,0-10.552,4.725-10.552,10.554
	c0,5.827,4.725,10.552,10.552,10.552c5.83,0,10.554-4.725,10.554-10.552C199.292,182.733,194.567,178.009,188.738,178.009z
	 M188.738,191.197c-1.457,0-2.64-1.182-2.64-2.64s1.183-2.64,2.64-2.64c1.456,0,2.64,1.181,2.64,2.64
	S190.194,191.197,188.738,191.197z"/>
<path fill="#009444" stroke="#000000" stroke-width="0.25" stroke-miterlimit="10" d="M188.738,202.828
	c-5.827,0-10.552,4.726-10.552,10.555c0,5.828,4.725,10.553,10.552,10.553c5.83,0,10.554-4.727,10.554-10.553
	C199.292,207.553,194.567,202.828,188.738,202.828z M188.738,216.017c-1.457,0-2.64-1.182-2.64-2.641c0-1.457,1.183-2.64,2.64-2.64
	c1.456,0,2.64,1.181,2.64,2.64C191.378,214.834,190.194,216.017,188.738,216.017z"/>
<path fill="#009444" stroke="#000000" stroke-width="0.25" stroke-miterlimit="10" d="M188.738,227.647
	c-5.827,0-10.552,4.726-10.552,10.554c0,5.827,4.725,10.554,10.552,10.554c5.83,0,10.554-4.727,10.554-10.554
	C199.292,232.373,194.567,227.647,188.738,227.647z M188.738,240.836c-1.457,0-2.64-1.182-2.64-2.64s1.183-2.64,2.64-2.64
	c1.456,0,2.64,1.182,2.64,2.64S190.194,240.836,188.738,240.836z"/>
<path stroke="#000000" stroke-width="0.25" stroke-miterlimit="10" d="M188.738,252.467c-5.827,0-10.552,4.727-10.552,10.555
	c0,5.827,4.725,10.553,10.552,10.553c5.83,0,10.554-4.726,10.554-10.553C199.292,257.193,194.567,252.467,188.738,252.467z
	 M188.738,265.656c-1.457,0-2.64-1.183-2.64-2.64c0-1.459,1.183-2.64,2.64-2.64c1.456,0,2.64,1.18,2.64,2.64
	C191.378,264.473,190.194,265.656,188.738,265.656z"/>
<path fill="#009444" stroke="#000000" stroke-width="0.25" stroke-miterlimit="10" d="M188.738,277.288
	c-5.827,0-10.552,4.725-10.552,10.555c0,5.827,4.725,10.551,10.552,10.551c5.83,0,10.554-4.724,10.554-10.551
	C199.292,282.012,194.567,277.288,188.738,277.288z M188.738,290.475c-1.457,0-2.64-1.181-2.64-2.638c0-1.459,1.183-2.64,2.64-2.64
	c1.456,0,2.64,1.181,2.64,2.64C191.378,289.295,190.194,290.475,188.738,290.475z"/>
<path fill="#92278F" stroke="#000000" stroke-width="0.25" stroke-miterlimit="10" d="M188.738,302.107
	c-5.827,0-10.552,4.727-10.552,10.553c0,5.827,4.725,10.556,10.552,10.556c5.83,0,10.554-4.729,10.554-10.556
	C199.292,306.834,194.567,302.107,188.738,302.107z M188.738,315.297c-1.457,0-2.64-1.183-2.64-2.638
	c0-1.459,1.183-2.643,2.64-2.643c1.456,0,2.64,1.182,2.64,2.643C191.378,314.115,190.194,315.297,188.738,315.297z"/>
<path fill="#92278F" stroke="#000000" stroke-width="0.25" stroke-miterlimit="10" d="M188.738,326.931
	c-5.827,0-10.552,4.722-10.552,10.554c0,5.828,4.725,10.55,10.552,10.55c5.83,0,10.554-4.722,10.554-10.55
	C199.292,331.652,194.567,326.931,188.738,326.931z M188.738,340.115c-1.457,0-2.64-1.181-2.64-2.636
	c0-1.459,1.183-2.642,2.64-2.642c1.456,0,2.64,1.183,2.64,2.642C191.378,338.934,190.194,340.115,188.738,340.115z"/>
<path fill="#00AEEF" stroke="#000000" stroke-width="0.25" stroke-miterlimit="10" d="M163.917,351.735
	c-5.829,0-10.553,4.729-10.553,10.554c0,5.828,4.724,10.556,10.553,10.556c5.828,0,10.555-4.728,10.555-10.556
	C174.471,356.463,169.746,351.735,163.917,351.735z M163.917,364.926c-1.46,0-2.639-1.183-2.639-2.642
	c0-1.455,1.179-2.643,2.639-2.643c1.458,0,2.641,1.188,2.641,2.643C166.556,363.744,165.375,364.926,163.917,364.926z"/>
<path fill="#009444" stroke="#000000" stroke-width="0.25" stroke-miterlimit="10" d="M163.917,376.554
	c-5.829,0-10.553,4.727-10.553,10.555c0,5.827,4.724,10.555,10.553,10.555c5.828,0,10.555-4.728,10.555-10.555
	C174.471,381.28,169.746,376.554,163.917,376.554z M163.917,389.744c-1.46,0-2.639-1.182-2.639-2.642
	c0-1.459,1.179-2.642,2.639-2.642c1.458,0,2.641,1.183,2.641,2.642C166.556,388.563,165.375,389.744,163.917,389.744z"/>
<path fill="#009444" stroke="#000000" stroke-width="0.25" stroke-miterlimit="10" d="M163.917,401.375
	c-5.829,0-10.553,4.728-10.553,10.554c0,5.828,4.724,10.555,10.553,10.555c5.828,0,10.555-4.727,10.555-10.555
	C174.471,406.101,169.746,401.375,163.917,401.375z M163.917,414.563c-1.46,0-2.639-1.183-2.639-2.642s1.179-2.643,2.639-2.643
	c1.458,0,2.641,1.184,2.641,2.643C166.556,413.383,165.375,414.563,163.917,414.563z"/>
<path fill="#009444" stroke="#000000" stroke-width="0.25" stroke-miterlimit="10" d="M163.917,426.193
	c-5.829,0-10.553,4.727-10.553,10.555c0,5.826,4.724,10.554,10.553,10.554c5.828,0,10.555-4.728,10.555-10.554
	C174.471,430.92,169.746,426.193,163.917,426.193z M163.917,439.383c-1.46,0-2.639-1.183-2.639-2.642s1.179-2.635,2.639-2.635
	c1.458,0,2.641,1.176,2.641,2.635S165.375,439.383,163.917,439.383z"/>
<path fill="#009444" stroke="#000000" stroke-width="0.25" stroke-miterlimit="10" d="M163.917,451.013
	c-5.829,0-10.553,4.727-10.553,10.559c0,5.822,4.724,10.549,10.553,10.549c5.828,0,10.555-4.727,10.555-10.549
	C174.471,455.74,169.746,451.013,163.917,451.013z M163.917,464.203c-1.46,0-2.639-1.184-2.639-2.637
	c0-1.459,1.179-2.643,2.639-2.643c1.458,0,2.641,1.184,2.641,2.643C166.556,463.021,165.375,464.203,163.917,464.203z"/>
<path fill="#009444" stroke="#000000" stroke-width="0.25" stroke-miterlimit="10" d="M163.917,475.838
	c-5.829,0-10.553,4.727-10.553,10.553c0,5.828,4.724,10.555,10.553,10.555c5.828,0,10.555-4.727,10.555-10.555
	C174.471,480.564,169.746,475.838,163.917,475.838z M163.917,489.027c-1.46,0-2.639-1.188-2.639-2.643
	c0-1.459,1.179-2.642,2.639-2.642c1.458,0,2.641,1.183,2.641,2.642C166.556,487.84,165.375,489.027,163.917,489.027z"/>
<path stroke="#000000" stroke-width="0.25" stroke-miterlimit="10" d="M163.917,500.656c-5.829,0-10.553,4.728-10.553,10.553
	c0,5.828,4.724,10.556,10.553,10.556c5.828,0,10.555-4.728,10.555-10.556C174.471,505.383,169.746,500.656,163.917,500.656z
	 M163.917,513.845c-1.46,0-2.639-1.183-2.639-2.642s1.179-2.635,2.639-2.635c1.458,0,2.641,1.176,2.641,2.635
	S165.375,513.845,163.917,513.845z"/>
<path fill="#00AEEF" stroke="#000000" stroke-width="0.25" stroke-miterlimit="10" d="M188.738,351.735
	c-5.827,0-10.552,4.729-10.552,10.554c0,5.828,4.725,10.556,10.552,10.556c5.83,0,10.554-4.728,10.554-10.556
	C199.292,356.463,194.567,351.735,188.738,351.735z M188.738,364.926c-1.457,0-2.64-1.183-2.64-2.642
	c0-1.455,1.183-2.643,2.64-2.643c1.456,0,2.64,1.188,2.64,2.643C191.378,363.744,190.194,364.926,188.738,364.926z"/>
<path stroke="#000000" stroke-width="0.25" stroke-miterlimit="10" d="M188.738,376.554c-5.827,0-10.552,4.727-10.552,10.555
	c0,5.827,4.725,10.555,10.552,10.555c5.83,0,10.554-4.728,10.554-10.555C199.292,381.28,194.567,376.554,188.738,376.554z
	 M188.738,389.744c-1.457,0-2.64-1.182-2.64-2.642c0-1.459,1.183-2.642,2.64-2.642c1.456,0,2.64,1.183,2.64,2.642
	C191.378,388.563,190.194,389.744,188.738,389.744z"/>
<path fill="#009444" stroke="#000000" stroke-width="0.25" stroke-miterlimit="10" d="M188.738,401.375
	c-5.827,0-10.552,4.728-10.552,10.554c0,5.828,4.725,10.555,10.552,10.555c5.83,0,10.554-4.727,10.554-10.555
	C199.292,406.101,194.567,401.375,188.738,401.375z M188.738,414.563c-1.457,0-2.64-1.183-2.64-2.642s1.183-2.643,2.64-2.643
	c1.456,0,2.64,1.184,2.64,2.643C191.378,413.383,190.194,414.563,188.738,414.563z"/>
<path stroke="#000000" stroke-width="0.25" stroke-miterlimit="10" d="M188.738,426.193c-5.827,0-10.552,4.727-10.552,10.555
	c0,5.826,4.725,10.554,10.552,10.554c5.83,0,10.554-4.728,10.554-10.554C199.292,430.92,194.567,426.193,188.738,426.193z
	 M188.738,439.383c-1.457,0-2.64-1.183-2.64-2.642s1.183-2.635,2.64-2.635c1.456,0,2.64,1.176,2.64,2.635
	S190.194,439.383,188.738,439.383z"/>
<path fill="#009444" stroke="#000000" stroke-width="0.25" stroke-miterlimit="10" d="M188.738,451.013
	c-5.827,0-10.552,4.727-10.552,10.559c0,5.822,4.725,10.549,10.552,10.549c5.83,0,10.554-4.727,10.554-10.549
	C199.292,455.74,194.567,451.013,188.738,451.013z M188.738,464.203c-1.457,0-2.64-1.184-2.64-2.637c0-1.459,1.183-2.643,2.64-2.643
	c1.456,0,2.64,1.184,2.64,2.643C191.378,463.021,190.194,464.203,188.738,464.203z"/>
<path fill="#009444" stroke="#000000" stroke-width="0.25" stroke-miterlimit="10" d="M188.738,475.838
	c-5.827,0-10.552,4.727-10.552,10.553c0,5.828,4.725,10.555,10.552,10.555c5.83,0,10.554-4.727,10.554-10.555
	C199.292,480.564,194.567,475.838,188.738,475.838z M188.738,489.027c-1.457,0-2.64-1.188-2.64-2.643
	c0-1.459,1.183-2.642,2.64-2.642c1.456,0,2.64,1.183,2.64,2.642C191.378,487.84,190.194,489.027,188.738,489.027z"/>
<path fill="#009444" stroke="#000000" stroke-width="0.25" stroke-miterlimit="10" d="M188.738,500.656
	c-5.827,0-10.552,4.728-10.552,10.553c0,5.828,4.725,10.556,10.552,10.556c5.83,0,10.554-4.728,10.554-10.556
	C199.292,505.383,194.567,500.656,188.738,500.656z M188.738,513.845c-1.457,0-2.64-1.183-2.64-2.642s1.183-2.635,2.64-2.635
	c1.456,0,2.64,1.176,2.64,2.635S190.194,513.845,188.738,513.845z"/>
<path fill="#F7941E" stroke="#000000" stroke-width="0.25" stroke-miterlimit="10" d="M153.365,29.091v21.105h21.105V29.091H153.365
	z M163.919,42.363c-1.503,0-2.723-1.217-2.723-2.72c0-1.502,1.22-2.721,2.723-2.721c1.502,0,2.72,1.219,2.72,2.721
	C166.638,41.146,165.421,42.363,163.919,42.363z"/>
<rect x="148.608" y="24.339" fill="none" stroke="#000000" stroke-miterlimit="10" width="55.016" height="503.399"/>
<rect x="142.405" y="33.024" fill="none" stroke="#000000" stroke-miterlimit="10" width="6.203" height="13.651"/>
<text transform="matrix(1 0 0 1 158.9473 18.5486)" font-family="sans-serif" font-size="14">1</text>
<text transform="matrix(1 0 0 1 183.7666 18.5486)" font-family="sans-serif" font-size="14">2</text>
<text transform="matrix(1 0 0 1 154.8076 544.7175)" font-family="sans-serif" font-size="14">39</text>
<text transform="matrix(1 0 0 1 179.627 544.7175)" font-family="sans-serif" font-size="14">40</text>
<text transform="matrix(1 0 0 1 51.3115 43.78)" font-family="sans-serif" font-size="14">+3.3V Power</text>
<text transform="matrix(1 0 0 1 46.4424 68.5994)" font-family="sans-serif" font-size="14">GPIO 2 (SDA)</text>
<text transform="matrix(1 0 0 1 47.5449 93.4207)" font-family="sans-serif" font-size="14">GPIO 3 (SCL)</text>
<text transform="matrix(1 0 0 1 18.0313 118.24)" font-family="sans-serif" font-size="14">GPIO 4 (GPCLK0)</text>
<text transform="matrix(1 0 0 1 86.4238 143.0593)" font-family="sans-serif" font-size="14">Ground</text>
<text transform="matrix(1 0 0 1 79.7979 167.8806)" font-family="sans-serif" font-size="14">GPIO 17</text>
<text transform="matrix(0.92 0 0 1 84.3438 192.7)" font-family="sans-serif" font-size="14">GPIO 27</text>
<text transform="matrix(1 0 0 1 216.0439 43.78)" font-family="sans-serif" font-size="14">+5V Power</text>
<text transform="matrix(1 0 0 1 216.0439 68.5994)" font-family="sans-serif" font-size="14">+5V Power</text>
<text transform="matrix(1 0 0 1 216.0439 93.4207)" font-family="sans-serif" font-size="14">Ground</text>
<text transform="matrix(1 0 0 1 216.0439 118.24)" font-family="sans-serif" font-size="14">GPIO 14 (TXD)</text>
<text transform="matrix(1 0 0 1 216.0439 143.0593)" font-family="sans-serif" font-size="14">GPIO 15 (RXD)</text>
<text transform="matrix(0.98 0 0 1 216.0439 167.8806)" font-family="sans-serif" font-size="14">GPIO 18</text>
<text transform="matrix(1 0 0 1 216.0439 192.7)" font-family="sans-serif" font-size="14">Ground</text>
<text transform="matrix(1 0 0 1 216.0439 217.5193)" font-family="sans-serif" font-size="14">GPIO 23</text>
<text transform="matrix(1 0 0 1 216.0439 242.3386)" font-family="sans-serif" font-size="14">GPIO 24</text>
<text transform="matrix(1 0 0 1 216.0439 267.1599)" font-family="sans-serif" font-size="14">Ground</text>
<text transform="matrix(1 0 0 1 216.0439 291.9763)" font-family="sans-serif" font-size="14">GPIO 25</text>
<text transform="matrix(1 0 0 1 216.0439 316.7957)" font-family="sans-serif" font-size="14">GPIO 8 (CE0)</text>
<text transform="matrix(1 0 0 1 216.0439 341.6169)" font-family="sans-serif" font-size="14">GPIO 7 (CE1)</text>
<text transform="matrix(1 0 0 1 51.3115 242.3386)" font-family="sans-serif" font-size="14">+3.3V Power</text>
<text transform="matrix(1 0 0 1 79.7979 217.5193)" font-family="sans-serif" font-size="14">GPIO 22</text>
<text transform="matrix(1 0 0 1 30.1523 267.1599)" font-family="sans-serif" font-size="14">GPIO 10 (MOSI)</text>
<text transform="matrix(1 0 0 1 38.4316 291.9763)" font-family="sans-serif" font-size="14">GPIO 9 (MISO)</text>
<text transform="matrix(1 0 0 1 29.333 316.7957)" font-family="sans-serif" font-size="14">GPIO 11 (SCLK)</text>
<text transform="matrix(1 0 0 1 86.4238 341.6169)" font-family="sans-serif" font-size="14">Ground</text>
<text transform="matrix(0.92 0 0 1 7.123 366.4275)" font-family="sans-serif" font-size="14">ID_SD (</text>
<text transform="matrix(0.92 0 0 1 53.0439 366.4275)" font-family="sans-serif" font-size="12.4091">I</text>
<text transform="matrix(0.9201 0 0 1 56.0015 362.2957)" font-family="sans-serif" font-size="7.2345">2</text>
<text transform="matrix(0.92 0 0 1 59.7012 366.4275)" font-family="sans-serif" font-size="12.4091">C ID EEPROM</text>
<text transform="matrix(0.92 0 0 1 133.0732 366.4275)" font-family="sans-serif" font-size="14">)</text>
<text transform="matrix(0.92 0 0 1 216.0439 366.4275)" font-family="sans-serif" font-size="14">ID_SC (</text>
<text transform="matrix(0.92 0 0 1 262.2119 366.4275)" font-family="sans-serif" font-size="12.4091">I</text>
<text transform="matrix(0.9201 0 0 1 265.1689 362.2957)" font-family="sans-serif" font-size="7.2345">2</text>
<text transform="matrix(0.92 0 0 1 268.8682 366.4275)" font-family="sans-serif" font-size="12.4091">C ID EEPROM</text>
<text transform="matrix(0.92 0 0 1 342.2412 366.4275)" font-family="sans-serif" font-size="14">)</text>
<text transform="matrix(1 0 0 1 216.0439 391.2468)" font-family="sans-serif" font-size="14">Ground</text>
<text transform="matrix(1 0 0 1 216.0439 416.0662)" font-family="sans-serif" font-size="14">GPIO 12</text>
<text transform="matrix(1 0 0 1 216.0439 440.8855)" font-family="sans-serif" font-size="14">Ground</text>
<text transform="matrix(1 0 0 1 216.0439 465.7048)" font-family="sans-serif" font-size="14">GPIO 16</text>
<text transform="matrix(1 0 0 1 216.0439 490.5232)" font-family="sans-serif" font-size="14">GPIO 20</text>
<text transform="matrix(1 0 0 1 216.0439 515.3455)" font-family="sans-serif" font-size="14">GPIO 21</text>
<text transform="matrix(1 0 0 1 88.0771 416.0662)" font-family="sans-serif" font-size="14">GPIO 6</text>
<text transform="matrix(1 0 0 1 88.0771 391.2468)" font-family="sans-serif" font-size="14">GPIO 5</text>
<text transform="matrix(1 0 0 1 79.7979 440.8855)" font-family="sans-serif" font-size="14">GPIO 13</text>
<text transform="matrix(1 0 0 1 79.7979 465.7048)" font-family="sans-serif" font-size="14">GPIO 19</text>
<text transform="matrix(1 0 0 1 79.7979 490.5232)" font-family="sans-serif" font-size="14">GPIO 26</text>
<text transform="matrix(1 0 0 1 86.4238 515.3455)" font-family="sans-serif" font-size="14">Ground</text>
<g>
	<g>
		<path d="M330.417,421.598h2.457v0.782h-2.457v2.516h-0.768v-2.516h-2.457v-0.782h2.457v-2.521h0.768V421.598z"/>
		<path d="M341.856,417.746h-3.224l-0.431,2.343l0.021,0.024c0.353-0.404,0.949-0.591,1.486-0.591c1.422,0,2.584,0.935,2.584,2.798
			c0,1.379-0.938,2.717-2.796,2.717c-1.387,0-2.514-0.862-2.547-2.338h0.959c0.056,0.844,0.724,1.476,1.679,1.476
			c0.916,0,1.688-0.632,1.688-1.935c0-1.082-0.729-1.854-1.804-1.854c-0.606,0-1.114,0.313-1.485,0.772l-0.824-0.047l0.746-4.236
			h3.945L341.856,417.746L341.856,417.746z"/>
		<path d="M346.877,424.896h-1.218l-2.84-8.211h1.158l2.301,7.119h0.022l2.321-7.119h1.113L346.877,424.896z"/>
	</g>
	
		<rect x="300.331" y="414.179" fill="#ED1C24" stroke="#000000" stroke-width="0.25" stroke-miterlimit="10" width="20.037" height="13.356"/>
</g>
<g>
	<g>
		<path d="M330.417,441.271h2.455v0.781h-2.455v2.521h-0.768v-2.521h-2.457v-0.781h2.457v-2.521h0.768V441.271z"/>
		<path d="M339.015,439.914c0.146,0.011,0.279,0.011,0.416,0.011c0.812,0,1.521-0.443,1.521-1.334c0-0.854-0.606-1.313-1.418-1.313
			c-1.05,0-1.5,0.818-1.515,1.773h-0.955c0.06-1.551,0.867-2.637,2.47-2.637c1.386,0,2.437,0.682,2.437,2.186
			c0,0.719-0.498,1.34-1.104,1.627v0.021c0.969,0.221,1.44,1,1.44,1.979c0,1.631-1.252,2.484-2.75,2.484
			c-1.623,0-2.692-0.976-2.658-2.656h0.957c0.033,1.057,0.609,1.793,1.701,1.793c0.938,0,1.738-0.586,1.738-1.576
			c0-1.023-0.759-1.564-1.705-1.564c-0.191,0-0.396,0.017-0.572,0.035L339.015,439.914L339.015,439.914z"/>
		<path d="M343.767,443.297h1.246v1.276h-1.246V443.297z"/>
		<path d="M348.424,439.914c0.147,0.011,0.28,0.011,0.418,0.011c0.81,0,1.521-0.443,1.521-1.334c0-0.854-0.606-1.313-1.418-1.313
			c-1.051,0-1.5,0.818-1.515,1.773h-0.959c0.06-1.551,0.869-2.637,2.474-2.637c1.385,0,2.435,0.682,2.435,2.186
			c0,0.719-0.496,1.34-1.104,1.627v0.021c0.969,0.221,1.442,1,1.442,1.979c0,1.631-1.252,2.484-2.75,2.484
			c-1.625,0-2.694-0.976-2.662-2.656h0.959c0.035,1.057,0.606,1.793,1.703,1.793c0.938,0,1.731-0.586,1.731-1.576
			c0-1.023-0.752-1.564-1.699-1.564c-0.189,0-0.395,0.017-0.573,0.035L348.424,439.914L348.424,439.914z"/>
		<path d="M356.284,444.574h-1.217l-2.84-8.215h1.159l2.302,7.125h0.02l2.324-7.125h1.111L356.284,444.574z"/>
	</g>
	
		<rect x="300.331" y="433.859" fill="#F7941E" stroke="#000000" stroke-width="0.25" stroke-miterlimit="10" width="20.037" height="13.354"/>
</g>
<g>
	<g>
		<path d="M333.667,500.605c0,2.07-1.161,3.162-3.172,3.162c-2.071,0-3.303-0.98-3.303-3.162v-5.246h1.069v5.246
			c0,1.449,0.815,2.24,2.231,2.24c1.354,0,2.101-0.791,2.101-2.24v-5.246h1.071L333.667,500.605L333.667,500.605z"/>
		<path d="M337.567,495.359h1.188l3.143,8.215h-1.184l-0.877-2.475h-3.406l-0.897,2.475h-1.108L337.567,495.359z M336.772,500.181
			h2.727l-1.34-3.832h-0.022L336.772,500.181z"/>
		<path d="M342.696,495.359h3.785c1.51,0,2.446,0.838,2.446,2.15c0,0.988-0.426,1.805-1.399,2.08v0.024
			c0.938,0.183,1.129,0.883,1.209,1.688c0.067,0.809,0.021,1.705,0.474,2.271h-1.196c-0.304-0.338-0.134-1.223-0.294-2.024
			c-0.11-0.808-0.303-1.482-1.338-1.482h-2.616v3.508h-1.068L342.696,495.359L342.696,495.359z M345.999,499.14
			c1,0,1.857-0.262,1.857-1.459c0-0.807-0.431-1.402-1.433-1.402h-2.66v2.861H345.999z"/>
		<path d="M352.045,496.277h-2.685v-0.918h6.438v0.918h-2.683v7.297h-1.073L352.045,496.277L352.045,496.277z"/>
	</g>
	
		<rect x="300.331" y="492.885" fill="#FFF200" stroke="#000000" stroke-width="0.25" stroke-miterlimit="10" width="20.037" height="13.354"/>
</g>
<g>
	<g>
		<path d="M332.308,517.533c-0.123-1.172-0.889-1.684-1.994-1.684c-0.903,0-1.801,0.34-1.801,1.408c0,1.012,1.283,1.162,2.578,1.455
			c1.285,0.303,2.569,0.764,2.569,2.375c0,1.75-1.681,2.446-3.144,2.446c-1.803,0-3.326-0.895-3.326-2.897h1.018
			c0,1.385,1.125,1.979,2.344,1.979c0.969,0,2.039-0.311,2.039-1.493c0-1.128-1.285-1.324-2.57-1.611
			c-1.282-0.289-2.58-0.668-2.58-2.172c0-1.672,1.451-2.408,2.919-2.408c1.646,0,2.896,0.793,2.965,2.602H332.308z"/>
		<path d="M334.965,515.129h3.524c1.604,0,2.472,0.907,2.472,2.424c0,1.524-0.867,2.442-2.472,2.43h-2.455v3.363h-1.069V515.129z
			 M336.034,519.062h2.097c1.207,0.016,1.758-0.529,1.758-1.51c0-0.976-0.551-1.504-1.758-1.504h-2.097V519.062z"/>
		<path d="M342.321,515.129h1.07v8.217h-1.07V515.129z"/>
	</g>
	
		<rect x="300.331" y="512.558" fill="#92278F" stroke="#000000" stroke-width="0.25" stroke-miterlimit="10" width="20.037" height="13.354"/>
</g>
<g>
	<g>
		<path d="M327.192,534.892h1.069v8.213h-1.069V534.892z"/>
		<path d="M329.479,536.201c-0.045-0.965,0.516-1.682,1.504-1.682c0.813,0,1.461,0.484,1.461,1.367c0,0.84-0.553,1.264-1.133,1.631
			c-0.586,0.359-1.201,0.662-1.31,1.252h2.396v0.502h-3.051c0.092-1.127,0.654-1.525,1.312-1.943
			c0.791-0.496,1.192-0.789,1.192-1.444c0-0.515-0.41-0.857-0.901-0.857c-0.653,0-0.931,0.605-0.91,1.178h-0.56V536.201z"/>
		<path d="M339.383,537.369c-0.226-1.164-1.136-1.754-2.252-1.754c-1.912,0-2.729,1.611-2.729,3.328c0,1.873,0.816,3.438,2.74,3.438
			c1.408,0,2.222-1.011,2.322-2.367h1.065c-0.201,2.045-1.451,3.287-3.479,3.287c-2.504,0-3.722-1.89-3.722-4.277
			c0-2.383,1.33-4.326,3.812-4.326c1.678,0,3.063,0.918,3.313,2.672L339.383,537.369L339.383,537.369z"/>
	</g>
	
		<rect x="300.331" y="532.232" fill="#00AEEF" stroke="#000000" stroke-width="0.25" stroke-miterlimit="10" width="20.037" height="13.355"/>
</g>
<g>
	<rect x="300.331" y="453.533" width="20.037" height="13.354"/>
	<g>
		<path d="M333.608,463.293c-0.621,0.862-1.633,1.217-2.58,1.217c-2.401,0-3.836-1.998-3.836-4.142c0-2.395,1.285-4.463,3.836-4.463
			c1.754,0,3.154,0.804,3.461,2.728h-1.071c-0.214-1.242-1.195-1.81-2.39-1.81c-1.949,0-2.765,1.729-2.765,3.49
			c0,1.713,0.972,3.275,2.765,3.275c1.653,0,2.647-1.183,2.58-2.683h-2.568v-0.918h3.527v4.326h-0.676L333.608,463.293z"/>
		<path d="M335.965,458.371h0.896v1.252h0.024c0.465-0.955,1.104-1.424,2.144-1.389v1.027c-1.546,0-2.108,0.899-2.108,2.41v2.646
			h-0.955L335.965,458.371L335.965,458.371z"/>
		<path d="M342.062,458.234c1.849,0,2.83,1.367,2.83,3.113c0,1.738-0.981,3.104-2.83,3.104c-1.852,0-2.828-1.366-2.828-3.104
			C339.233,459.601,340.211,458.234,342.062,458.234z M342.062,463.592c1.002,0,1.816-0.81,1.816-2.242
			c0-1.449-0.814-2.258-1.816-2.258s-1.817,0.809-1.817,2.258C340.243,462.783,341.06,463.592,342.062,463.592z"/>
		<path d="M350.849,464.318h-0.901v-0.943h-0.021c-0.412,0.732-1.062,1.08-1.897,1.08c-1.533,0-2.003-0.897-2.003-2.176v-3.908h0.96
			v4.021c0,0.73,0.446,1.197,1.178,1.197c1.164,0,1.729-0.793,1.729-1.863v-3.355h0.957L350.849,464.318L350.849,464.318z"/>
		<path d="M352.299,458.371h0.899v0.938h0.024c0.404-0.73,1.056-1.074,1.892-1.074c1.533,0,2.006,0.894,2.006,2.172v3.912h-0.955
			v-4.028c0-0.724-0.452-1.197-1.186-1.197c-1.162,0-1.724,0.799-1.724,1.863v3.362h-0.959L352.299,458.371L352.299,458.371z"/>
		<path d="M363.774,464.318h-0.955v-0.809h-0.022c-0.317,0.656-1.062,0.942-1.86,0.942c-1.791,0-2.685-1.448-2.685-3.131
			c0-1.676,0.881-3.09,2.659-3.09c0.601,0,1.453,0.228,1.886,0.93h0.022V456.1h0.955V464.318L363.774,464.318z M361.069,463.592
			c1.285,0,1.785-1.127,1.785-2.242c0-1.176-0.523-2.258-1.843-2.258c-1.308,0-1.743,1.143-1.743,2.303
			C359.269,462.511,359.831,463.592,361.069,463.592z"/>
	</g>
</g>
<g>
	
		<rect x="300.331" y="473.207" fill="#009444" stroke="#000000" stroke-width="0.25" stroke-miterlimit="10" width="20.037" height="13.355"/>
	<g>
		<path d="M333.608,482.967c-0.621,0.869-1.633,1.223-2.582,1.223c-2.402,0-3.834-2-3.834-4.141c0-2.396,1.285-4.465,3.834-4.465
			c1.756,0,3.153,0.805,3.461,2.729h-1.07c-0.215-1.248-1.194-1.809-2.391-1.809c-1.947,0-2.765,1.727-2.765,3.483
			c0,1.718,0.974,3.281,2.765,3.281c1.656,0,2.649-1.188,2.582-2.682h-2.57v-0.925h3.527v4.328h-0.674L333.608,482.967z"/>
		<path d="M336.151,475.781h3.526c1.601,0,2.472,0.902,2.472,2.424c0,1.521-0.871,2.438-2.472,2.431h-2.457v3.356h-1.069V475.781z
			 M337.222,479.715h2.099c1.206,0.01,1.758-0.529,1.758-1.511c0-0.98-0.552-1.504-1.758-1.504h-2.099V479.715z"/>
		<path d="M343.51,475.781h1.067v8.211h-1.067V475.781z"/>
		<path d="M349.784,475.584c2.563,0,3.857,2.069,3.857,4.303c0,2.232-1.296,4.303-3.857,4.303c-2.555,0-3.85-2.07-3.85-4.303
			S347.229,475.584,349.784,475.584z M349.784,483.269c1.965,0,2.789-1.727,2.789-3.383s-0.824-3.383-2.789-3.383
			c-1.959,0-2.78,1.727-2.78,3.383S347.825,483.269,349.784,483.269z"/>
	</g>
</g>
</svg>
